<?xml version="1.0" encoding="utf-8" ?>
<svg baseProfile="full" height="114.62437320034951" version="1.1" width="820.2608685570522" xmlns="http://www.w3.org/2000/svg" xmlns:ev="http://www.w3.org/2001/xml-events" xmlns:xlink="http://www.w3.org/1999/xlink"><defs /><rect fill="white" height="114.62437320034951" width="820.2608685570522" x="0" y="0" /><path d="M25,34.25190740963444 m0.0,0.0 m39.53914505455032,-0.4018138925312087 l-1.6330143809318542,-0.05993082653731108 -1.1082782596349716,0.49824487417936325 l-3.239208161830902,2.8571629524230957 -1.6996395587921143,3.1826072931289673 l-0.7894062250852585,4.112357795238495 0.0014398331404663622,3.3977270126342773 l1.2217053025960922,3.2548484206199646 1.6476057469844818,2.0401453971862793 l2.309580445289612,1.710522472858429 2.4994806945323944,1.0496650636196136 l2.7586600184440613,0.4029254615306854 3.440483510494232,-0.005444830167107284 l2.497509866952896,-0.7593235373497009 2.58856862783432,-1.6642758250236511 l2.1589285135269165,-2.4041636288166046 1.0558227449655533,-2.183019667863846 l0.4981236532330513,-3.269037902355194 -0.2975281700491905,-4.659080505371094 l-1.822371631860733,-3.8282212615013123 -2.4724185466766357,-2.7709421515464783 l-2.997884154319763,-1.5744830667972565 -3.833487033843994,-0.7543975114822388 l-3.061436116695404,-0.01696426304988563 -2.6646921038627625,1.1904814094305038 m0.05915360990911722,7.26354718208313 l-1.0192767530679703,0.07051726803183556 -1.0069359838962555,1.0305044054985046 l-0.866437703371048,1.9307750463485718 -0.030460110865533352,2.003539502620697 l1.1823191493749619,1.764426827430725 1.4270053803920746,0.5013700947165489 l1.9477002322673798,-0.2534671314060688 1.3304297626018524,-1.1528833955526352 l0.8701790869235992,-1.9025620818138123 -0.12246659025549889,-2.3951107263565063 l-1.4750389754772186,-1.762569546699524 -2.0049001276493073,-0.6417851895093918 l-1.4707177877426147,0.18775252625346184 -1.010347381234169,0.7936155050992966 m13.167825937271118,-0.2239665575325489 l-1.3960236310958862,0.04475325811654329 -1.2679806351661682,0.779368057847023 l-1.1596230417490005,2.0428644120693207 -0.08434200659394264,1.7774692177772522 l1.1550865322351456,1.9066141545772552 1.3807137310504913,0.6622648239135742 l1.571478545665741,-0.08926590904593468 1.421506553888321,-0.9866480529308319 l0.6820164620876312,-1.1434648931026459 0.16847405582666397,-2.030705362558365 l-0.5193410068750381,-1.3969098031520844 -1.7079156637191772,-1.4363425970077515 l-1.6060982644557953,-0.3385228291153908 m-5.301514267921448,8.672329187393188 l1.0024023056030273,1.7626197636127472 0.6382923573255539,0.08185138925909996 l0.6872289627790451,-1.2757214903831482 -1.2443337589502335,-0.6525056064128876 m-7.766320109367371,3.070615828037262 l-1.7439082264900208,1.9906145334243774 -2.1545204520225525,4.897103905677795 l-1.2559512257575989,5.606487989425659 0.00017139191186288372,7.105913162231445 l1.2575620412826538,4.463785290718079 2.7373746037483215,4.961728751659393 l2.125193327665329,2.4092012643814087 2.3115354776382446,1.5705421566963196 l2.809920907020569,0.7096968591213226 3.458682894706726,-0.015125864883884788 l2.5364792346954346,-0.9721023589372635 2.6477715373039246,-1.884099692106247 l2.526412010192871,-2.7783113718032837 1.9157834351062775,-3.609638810157776 l1.0264938324689865,-4.343198239803314 0.2396681159734726,-6.457950472831726 l-1.0965456068515778,-4.485177397727966 -2.1408428251743317,-4.553044140338898 l-2.3791830241680145,-2.9830363392829895 m-15.286390781402588,2.801578938961029 l-1.1198128014802933,4.083726704120636 -0.3682805597782135,4.1144859790802 l1.2895765900611877,8.86033296585083 0.8592097461223602,2.5799718499183655 l0.9539847075939178,1.5736642479896545 1.5318779647350311,1.316101849079132 l1.7607326805591583,0.4850851371884346 2.477669417858124,0.06714582443237305 l1.539735347032547,-0.6133553013205528 1.3272786140441895,-1.201968789100647 l1.4147171378135681,-2.3198576271533966 0.7872682809829712,-2.5977128744125366 l0.3614962473511696,-5.365164875984192 -0.22392122074961662,-5.450238585472107 l-1.2373784929513931,-4.311653971672058 -1.264621615409851,-2.211531400680542 l-1.1527243256568909,-1.1918433010578156 -1.3507857918739319,-0.7384443283081055 l-1.7477144300937653,-0.2823425643146038 -1.7135700583457947,0.20744020119309425 l-1.4269565045833588,0.8289230614900589 -1.2415365874767303,1.4913515746593475 m0.6854316592216492,-1.8933595716953278 l-0.2590976841747761,2.4466904997825623 -1.1626648902893066,2.818423807621002 l-1.978984773159027,3.1999334692955017 -1.2925854325294495,1.2718591094017029 l-1.50127112865448,0.8110052347183228 -3.215515613555908,0.4286814481019974 l-1.9885802268981934,-0.6300763040781021 -1.0778000950813293,-0.930376797914505 l-0.9754191339015961,-2.216593027114868 -0.3890184313058853,-3.7726017832756042 l0.4729996994137764,-2.177695482969284 1.1392159014940262,-2.386668771505356 l2.648555040359497,-3.3130982518196106 2.7840813994407654,-2.125374972820282 l2.1610958874225616,-0.900789201259613 2.3269258439540863,-0.40238410234451294 l1.8417298793792725,0.17766999080777168 1.469871699810028,0.6620922684669495 l1.9879524409770966,2.235076278448105 0.9535975754261017,2.094392478466034 l0.8017206192016602,4.752428829669952 0.005094613879919052,5.284428000450134 l-0.8567637950181961,3.946313261985779 -1.1436576396226883,1.965862661600113 l-1.4159709215164185,0.9555727243423462 -2.591646909713745,0.46804100275039673 l-2.9523849487304688,-0.41979432106018066 -1.8034784495830536,-1.1554920673370361 l-1.9022537767887115,-2.2815385460853577 -1.3577987253665924,-3.703410029411316 l-0.44433455914258957,-3.71857613325119 0.2637621946632862,-3.8314053416252136 l0.7883774489164352,-2.230270355939865 1.2626321613788605,-1.806829571723938 l2.424430251121521,-1.989811509847641 3.4986820816993713,-1.4766708016395569 l2.051830440759659,-0.3071078471839428 2.2335077822208405,0.7339663058519363 l2.182875871658325,2.1589024364948273 1.5477769076824188,3.8870015740394592 l0.5610013380646706,4.739832282066345 0.00020995223167119548,4.829652011394501 l-0.5581782013177872,2.2026588022708893 -0.9015403687953949,1.4212153851985931 l-1.1669645458459854,0.7356103509664536 -1.6890329122543335,0.30321549624204636 m70.14799758810113,-14.29199804464588 l-0.5008555203676224,-2.0886817574501038 0.20727483555674553,-3.9557477831840515 l0.7798612117767334,-2.3775500059127808 1.6900113224983215,-2.3730476200580597 l2.3762793838977814,-1.8671831488609314 2.9709458351135254,-0.9979636967182159 l3.359285891056061,-0.06780838128179312 1.6546320915222168,0.5044858157634735 l2.095245271921158,1.6790838539600372 1.7186497151851654,2.9816892743110657 l0.5107605084776878,2.2376735508441925 0.0012856547255069017,2.9377546906471252 l-0.9490954130887985,2.7893149852752686 -1.7225879430770874,1.9964201748371124 l-2.7786532044410706,1.4601929485797882 -3.793743848800659,0.521545484662056 l-3.7096673250198364,-0.5462922900915146 -1.4452220499515533,-0.7096818089485168 l-1.7043614387512207,-1.8495804071426392 -0.48066265881061554,-1.6803252696990967 l-0.003143293724860996,-2.041303813457489 m5.677978992462158,-3.438962996006012 l-0.8014342188835144,-0.20231375470757484 -0.5123257637023926,-0.8061657845973969 l-0.012377016246318817,-1.921759843826294 0.9493886679410934,-1.3598129153251648 l1.0053310543298721,-0.526268482208252 1.2331975996494293,0.00570382981095463 l0.8806868642568588,0.6518705934286118 0.4697711393237114,1.577380746603012 l-0.3658859059214592,1.7879486083984375 -0.7526649534702301,0.7321930676698685 l-0.9259086102247238,0.16528144478797913 -0.7444199919700623,-0.39973054081201553 m7.265011668205261,-0.18041998147964478 l-1.4380870759487152,-0.493088960647583 -0.903286337852478,-1.6306254267692566 l-0.14619306661188602,-1.2103160470724106 0.5949464812874794,-1.5179678797721863 l1.3135035336017609,-1.001054123044014 1.8870560824871063,-0.05898854695260525 l1.006620153784752,1.0024118423461914 0.4713944345712662,1.3375456631183624 l-0.3025708720088005,1.802404522895813 -1.1835097521543503,1.3073545694351196 l-1.139451190829277,0.2933965437114239 -0.9829827398061752,-0.33364012837409973 m-3.4782087802886963,2.2464285790920258 l1.2002094089984894,-0.12689275667071342 0.15421725809574127,0.45058101415634155 l-0.8966335654258728,1.7766588926315308 -0.5506863445043564,-0.1748942956328392 l-0.2938809432089329,-2.3650839924812317 m-4.631532430648804,4.177686274051666 l-1.2291315197944641,0.6839461624622345 -1.9559189677238464,3.162359893321991 l-1.0626935958862305,3.413964807987213 -0.37133872509002686,4.6743243932724 l0.6292153894901276,4.295426905155182 1.37813001871109,3.7294837832450867 l1.5022563934326172,1.8332724273204803 1.9136631488800049,1.1651547253131866 l2.579355835914612,0.4465269297361374 3.453807532787323,-0.26010211557149887 l2.893071472644806,-1.2176086753606796 2.2023986279964447,-1.9542820751667023 l1.5135183930397034,-2.5505995750427246 0.9902205318212509,-3.529324531555176 l0.11286898516118526,-4.728964269161224 -0.8102361112833023,-4.6682968735694885 l-1.4996656775474548,-3.5772520303726196 -1.2666073441505432,-1.4818854629993439 m-13.927024602890015,4.5064616203308105 l-1.2545061111450195,-0.450250580906868 -2.217237204313278,0.21557394415140152 l-2.1969538927078247,1.2757974863052368 -1.9700883328914642,2.343987375497818 l-0.8504987508058548,2.22506120800972 -0.28753122314810753,2.0780059695243835 l0.26827143505215645,1.1448944360017776 1.225239410996437,0.8196432143449783 l2.4449655413627625,0.18877753987908363 2.3441120982170105,-0.7575433701276779 l1.9176280498504639,-1.479567140340805 m20.331616401672363,-7.712307572364807 l1.3245798647403717,-0.5488359928131104 1.7558424174785614,-0.07503981702029705 l2.2670267522335052,1.0807455331087112 1.19797982275486,1.1557424068450928 l0.8759333193302155,2.1676255762577057 0.18433436751365662,1.7986324429512024 l-0.7895620167255402,1.7921507358551025 -2.3504307866096497,1.6445577144622803 l-2.9344940185546875,0.3724844381213188 -1.3489477336406708,-0.3499799221754074 l-0.9936442226171494,-0.809851661324501 m-10.114450454711914,8.191965818405151 l-0.3788132965564728,2.8477731347084045 -1.4361706376075745,0.5835862830281258 m5.952646732330322,-3.9326080679893494 l0.7405545562505722,3.176296651363373 1.230989322066307,1.8255537748336792 m-9.670292735099792,-27.43774652481079 l-0.7321122288703918,0.2954269200563431 -0.4802079498767853,1.4185743033885956 l0.0037637207424268126,2.238546907901764 0.7524158805608749,1.0966722667217255 l1.2362682819366455,0.36609236150979996 0.9386719018220901,-0.308481901884079 l0.9134949743747711,-1.5181580185890198 0.08422181941568851,-2.165846526622772 l-0.6904109567403793,-1.218102052807808 -1.583758145570755,-0.8869990706443787 l-1.5610305964946747,-0.03487146459519863 -0.53297508507967,0.49502503126859665 m9.51168954372406,-0.24233637377619743 l-1.2661267817020416,0.8681581914424896 -0.7781518995761871,1.5019559860229492 l-0.0445665093138814,2.3261332511901855 0.8401884138584137,0.9707918018102646 l1.1746803671121597,0.28350772336125374 1.368437260389328,-0.28494901955127716 l1.0455891489982605,-1.2200091034173965 0.1156587153673172,-1.8328410387039185 l-0.5812637880444527,-1.2163986265659332 -1.6274379193782806,-0.9977420419454575 l-1.7531247437000275,-0.12914913706481457 m-3.4124526381492615,7.267955541610718 l0.7649357616901398,1.268164962530136 1.1585097014904022,0.6036724150180817 l0.7991550862789154,-1.923174262046814 -1.4639006555080414,-0.2584381029009819 m-5.986198782920837,10.057185888290405 l-0.3720032423734665,1.424446552991867 -0.0024571112589910626,3.2973098754882812 l0.4552335664629936,1.371292620897293 1.0391267389059067,1.0741723328828812 l1.5925145149230957,0.5139616504311562 1.181630939245224,-0.1830245740711689 l1.0825815051794052,-0.8614101260900497 1.1258342862129211,-2.248980551958084 l0.29128728434443474,-2.8613442182540894 0.09343855082988739,0.38078680634498596 l-0.27341870591044426,0.9142669290304184 -0.9849007427692413,2.114025205373764 l-0.9474590420722961,1.4110039174556732 -0.7254435867071152,0.6004908680915833 l-0.9476897120475769,0.051758820191025734 m77.55982477203361,-12.487364067928866 l-1.4755333960056305,-0.7115667313337326 -2.3969438672065735,-2.918585240840912 l-1.0386642813682556,-3.2178932428359985 -0.00078033292084001,-3.714127838611603 l0.670945793390274,-2.461688071489334 1.76311656832695,-2.9680007696151733 l1.702001839876175,-1.706485003232956 3.0489784479141235,-1.5000428259372711 l3.8118350505828857,-0.5292978882789612 3.2657739520072937,0.40123675018548965 l3.040473163127899,1.6099336743354797 1.498391181230545,1.4653192460536957 l1.0411091148853302,1.7638136446475983 0.723673552274704,3.578254282474518 l-0.2549516037106514,2.172044515609741 -1.5285959839820862,2.916383743286133 l-2.415514439344406,2.9439476132392883 -2.7720391750335693,2.203240394592285 l-2.6771950721740723,0.9539803862571716 -3.3099037408828735,0.10547423735260963 l-2.539588510990143,-1.0424328595399857 -1.0898876935243607,-1.1730580776929855 m3.2245326042175293,-9.397537112236023 l2.4246248602867126,0.005782797816209495 1.299389898777008,0.5430933460593224 l0.26724159717559814,0.9937897324562073 -1.0084060579538345,2.4443912506103516 l-0.7446955144405365,0.5151029676198959 -0.7809984683990479,-0.105037996545434 l-0.8212567120790482,-1.2138205766677856 -0.601569265127182,-2.322096526622772 m-3.760436773300171,8.066902756690979 l-1.3750600814819336,2.3947960138320923 -1.179458126425743,3.785061538219452 l-0.3904838114976883,5.414069890975952 0.5657254904508591,2.256886065006256 l2.1357132494449615,3.5614371299743652 2.0999589562416077,1.7524546384811401 l2.6906222105026245,1.028359979391098 2.996949851512909,0.19649265334010124 l2.6377251744270325,-0.6910660117864609 1.750134825706482,-1.001996323466301 l1.4527170360088348,-1.4994563162326813 1.1744504421949387,-2.165469527244568 l0.5574331060051918,-2.261245846748352 0.039825295098125935,-4.406561851501465 l-1.0163167119026184,-4.438634514808655 -1.6489741206169128,-3.662809431552887 l-1.5616284310817719,-1.7659935355186462 m-12.453500032424927,2.2655297815799713 l-3.227020502090454,1.2136983126401901 -2.1297267079353333,1.9838336110115051 l-2.0030033588409424,3.7201055884361267 -0.6756069511175156,2.926182448863983 l-0.013915678719058633,4.224600791931152 0.6293704360723495,1.7348116636276245 l1.8756960332393646,2.306893467903137 1.3109906017780304,0.6407053768634796 l1.335701197385788,-0.1001978199928999 1.1357631534337997,-0.9472353011369705 l1.285969763994217,-2.563169002532959 1.0525159537792206,-6.15678608417511 l-0.03365006064996123,-7.8488850593566895 m14.67466115951538,-0.4999968782067299 l0.5292247608304024,4.153112769126892 2.0204073190689087,5.457392334938049 l1.616152822971344,2.482234388589859 1.3534164428710938,1.0223272442817688 l1.1437077075242996,0.19064435735344887 0.9422150254249573,-1.0819722712039948 l0.47870349138975143,-2.9488784074783325 -1.1562643200159073,-8.48399043083191 l-0.9458201378583908,-2.04404279589653 -1.6488872468471527,-1.7161566019058228 m-17.280476093292236,0.14788348227739334 l-0.6794814020395279,1.3795767724514008 -0.297953262925148,1.6642196476459503 l0.00020352266801637597,4.11128044128418 0.7906781136989594,3.2001593708992004 l1.3497664034366608,1.948373168706894 1.665833443403244,1.1202096939086914 l2.2372467815876007,0.4868210479617119 1.4365094900131226,-0.356547087430954 l1.3838060200214386,-1.0746753960847855 1.271200031042099,-2.2213029861450195 l0.5102011561393738,-3.349374234676361 -0.2803654968738556,-3.7002015113830566 l-1.279245764017105,-3.311014473438263 -1.695031225681305,-1.9046024978160858 l-1.5115272998809814,-0.7959494739770889 -2.182457447052002,-0.17413722351193428 l-1.3487853109836578,0.47942303121089935 -1.146446019411087,1.0687465965747833 l-0.7446876168251038,1.744338721036911 m5.61270534992218,-4.841612875461578 l-0.29674671590328217,0.8370762318372726 -0.0011084318975917995,2.44453102350235 l0.788019448518753,1.544136255979538 0.9625159949064255,0.4022473096847534 l1.2530218064785004,-0.24566508829593658 0.7164952903985977,-1.4638128876686096 l0.0002053148091363255,-1.4721700549125671 -0.732850655913353,-1.0622885078191757 l-1.118476316332817,-0.4385065659880638 -1.239999681711197,0.10013854131102562 l-0.8409052342176437,0.7810730487108231 m-3.747595250606537,-0.6285410374403 l-0.5477835983037949,1.7538362741470337 0.3981456905603409,1.3244077563285828 l1.2436886876821518,0.563848614692688 1.2740138173103333,-0.2868683636188507 l0.760113000869751,-1.2527507543563843 -0.4211515560746193,-1.7531929910182953 l-1.0067950934171677,-0.873442068696022 -1.1599135398864746,-0.14550844207406044 l-1.067185178399086,0.43563127517700195 m3.8925132155418396,3.624405860900879 l0.17643384635448456,2.2490495443344116 0.5741776153445244,0.4065849632024765 l0.5920757353305817,-0.12023637071251869 0.5275971442461014,-1.3089540600776672 l-0.5825245752930641,-1.0094436258077621 m-6.196662187576294,-4.5577603578567505 l0.01695752958767116,0.01010041800327599 0.09761685505509377,-0.5513488873839378 l0.07986425422132015,0.47945640981197357 0.539591982960701,0.09020556695759296 m8.203150629997253,-1.4472363889217377 l0.24074722081422806,0.44196363538503647 -0.4447157308459282,-0.41259128600358963 m7.391281723976135,10.147097110748291 l0.5998118966817856,2.5284701585769653 0.1711483672261238,6.981959342956543 l-0.37748392671346664,2.208065986633301 -0.6426876783370972,1.098008006811142 l-0.7612260431051254,0.4029713198542595 -0.9676575660705566,-0.25868283584713936 l-0.7895982265472412,-0.919572189450264 -1.15961454808712,-2.695479989051819 l-0.2688305638730526,-3.6755043268203735 1.1043273657560349,-5.436718463897705 m-19.299575090408325,-0.5901826918125153 l-0.44026244431734085,4.042794406414032 0.42054977267980576,5.159549117088318 l1.0563015937805176,1.946524828672409 1.1800477653741837,0.5060502886772156 l1.5415170788764954,-0.361107662320137 0.7929409295320511,-1.716916710138321 m79.63093357924663,8.61701545327378 l0.0007099513459252194,-0.057588862255215645 -0.7050466537475586,-0.991523265838623 l-3.098909556865692,-4.662066996097565 -1.9474372267723083,-5.917152166366577 l-0.5957568809390068,-4.7967857122421265 0.02829307457432151,-6.601054072380066 l1.1614232510328293,-5.285082459449768 1.7397239804267883,-4.480772316455841 l2.091968208551407,-3.2696449756622314 3.013209104537964,-2.9138416051864624 l3.8754668831825256,-2.073463052511215 4.572878479957581,-0.9374427795410156 l4.989629685878754,-0.032487777061760426 2.1349991858005524,0.5604685097932816 l2.9523640871047974,1.7194414138793945 2.8928613662719727,3.299608826637268 l2.245364338159561,4.420439898967743 1.5985438227653503,5.658108592033386 l0.6284864246845245,6.08936071395874 -0.10510759428143501,7.950416803359985 l-1.1551743745803833,5.714397430419922 -1.735636591911316,4.123798906803131 l-2.0689843595027924,2.8351956605911255 -2.7218788862228394,1.9868950545787811 l-3.778401017189026,1.4999668300151825 -4.388101696968079,0.7373631000518799 l-4.894771575927734,-0.14276993460953236 -3.5991382598876953,-1.43557608127594 l-2.8345099091529846,-2.264736443758011 -1.0081998258829117,-1.7711049318313599 l-0.5757099017500877,-3.044009208679199 m6.399143934249878,-28.895773887634277 l-0.5922004953026772,-0.12826507911086082 -1.2598104774951935,0.8784396946430206 l-1.2406837940216064,2.008361667394638 -0.5888483673334122,2.1473561227321625 l0.000806494863354601,2.583262324333191 0.8465897291898727,1.5839499235153198 l1.1013225466012955,0.8679725974798203 1.9060149788856506,0.48878680914640427 l2.1755222976207733,-0.0016833747213240713 1.8873929977416992,-0.9480205923318863 l1.3683049380779266,-1.907934844493866 0.37506770342588425,-2.4543504416942596 l-0.7608222216367722,-2.4301408231258392 -1.45854651927948,-1.494600623846054 l-2.5734418630599976,-1.2534990906715393 -1.8906466662883759,-0.28574680909514427 l-1.3839128613471985,0.3301898390054703 m16.10842227935791,-0.48090435564517975 l-1.1837847530841827,-0.028648350853472948 -1.4597409963607788,0.8756288886070251 l-1.5825261175632477,2.4899035692214966 -0.5101668834686279,2.8434115648269653 l0.6492067128419876,2.5533807277679443 1.0178273171186447,1.2999556958675385 l1.6781137883663177,0.8234712481498718 2.1821585297584534,0.028917996678501368 l1.776953935623169,-0.9770982712507248 1.3171061873435974,-1.7513351142406464 l0.46072881668806076,-2.1681661903858185 -0.24659836664795876,-2.8544309735298157 l-0.94937764108181,-1.4182890951633453 -1.4249639213085175,-0.8912168443202972 l-1.931232064962387,-0.4345923662185669 m-8.574707508087158,11.960581541061401 l1.2293242663145065,1.004258319735527 1.8002386391162872,3.1992140412330627 l1.5133695304393768,-4.97869610786438 -1.57431960105896,0.37892598658800125 l-2.66905277967453,1.3756455481052399 m-7.616695165634155,-5.2878230810165405 l-0.020188239868730307,0.4791644960641861 0.6365076452493668,0.23943057283759117 l0.8916698396205902,-0.4697779566049576 0.4433182626962662,-1.2434948235750198 l-0.7710910588502884,-0.3030063770711422 -0.6511694937944412,0.38488704711198807 l-0.4257659986615181,1.0741909593343735 0.5385379865765572,0.3982200473546982 l0.6133143603801727,-0.16503863036632538 0.563376359641552,-1.028267815709114 l-0.5073515325784683,-0.6121035665273666 -0.4684972018003464,0.7439905405044556 l0.5422846972942352,0.4063910245895386 0.8004806935787201,-0.4718219116330147 l0.2772483788430691,-0.8284827321767807 -0.7535914331674576,-0.2358538843691349 l-0.7497178763151169,0.6238371878862381 -0.20493732765316963,0.9195795655250549 l0.8275113254785538,0.44686026871204376 0.6423695385456085,-0.17087195068597794 l0.41285742074251175,-0.664103701710701 -0.5231813713908195,-0.5212779343128204 l-0.6811624020338058,0.1384933851659298 -0.2716481499373913,0.5811405926942825 m15.544843673706055,-2.1579207479953766 l-0.7740410417318344,0.8805672824382782 0.6649627536535263,0.3973938152194023 l1.1872942000627518,-0.3140285611152649 0.5263180658221245,-1.0824479162693024 l-0.6653124839067459,-0.5151768028736115 -1.2549886107444763,0.12601436115801334 l-0.682789534330368,0.8003654330968857 -0.0006539010792039335,0.7900721579790115 l0.9066295623779297,0.35409528762102127 1.2112953513860703,-0.35199303179979324 l0.5062577500939369,-0.8677829056978226 -0.8839502930641174,-0.6616388261318207 l-1.2939274311065674,0.03778469283133745 -0.688478872179985,0.6670749932527542 l-0.12526201084256172,0.5250071361660957 0.7213431596755981,0.23269522935152054 l0.6021200492978096,-0.2485192008316517 0.41014909744262695,-0.7752516120672226 l-0.6301398575305939,-0.35314008593559265 -0.7127401232719421,0.2975974790751934 l-0.0020996156672481447,0.6780992448329926 0.672759935259819,0.348091758787632 l0.6208345666527748,-0.1616673730313778 0.12498825788497925,-0.5346868559718132 l-0.6946658343076706,-0.3356624022126198 -0.709383487701416,0.28970377519726753 l-0.2590423822402954,0.9937628358602524 0.6640499085187912,0.37874501198530197 l1.17297925055027,-0.21337157115340233 0.7976822555065155,-1.211877465248108 l-0.00787368742749095,-0.5791148543357849 -0.8466660976409912,-0.1930076628923416 l-0.8237034827470779,0.4848812520503998 -0.2827225998044014,0.5952685326337814 m-18.389809131622314,16.49997591972351 l-0.2755354158580303,6.996365785598755 -1.4123307168483734,5.139266848564148 l-1.1563675105571747,2.3219868540763855 -1.4900873601436615,1.3677580654621124 l-1.3074852526187897,0.36875154823064804 -1.0344963520765305,-0.4240303114056587 l-0.9896855056285858,-1.3260741531848907 -1.071045622229576,-3.252595067024231 l-0.39257675409317017,-4.315143823623657 0.3252328559756279,-5.21719217300415 l1.35599747300148,-4.018707871437073 1.3354724645614624,-2.2767437994480133 l2.2007179260253906,-2.0591841638088226 1.5565603971481323,-0.644402876496315 l1.7200644314289093,-0.09434615261852741 m24.828314781188965,1.977802813053131 m56.551747497942415,-19.96033885057841 l-1.4655067026615143,-0.7266352325677872 -2.6690635085105896,-0.02167261904105544 l-2.849891781806946,1.559731662273407 -1.7409883439540863,1.866416335105896 l-1.2024158239364624,2.5433576107025146 -0.40555376559495926,2.4330683052539825 l-0.001953809114638716,2.745468020439148 1.1865877360105515,2.8695148229599 l1.6181093454360962,1.5601623058319092 2.051074653863907,0.9865904599428177 l1.9516922533512115,0.3932901844382286 3.1641334295272827,-0.0803770124912262 l2.2185657918453217,-0.9089906513690948 1.7081621289253235,-1.2780016660690308 l1.1800787597894669,-1.5929602086544037 0.8428975939750671,-2.5771087408065796 l-0.13648822903633118,-3.8952529430389404 -1.3996148109436035,-2.9442858695983887 l-2.203296720981598,-2.319503426551819 -2.5449779629707336,-1.2189165502786636 l-2.20558762550354,-0.25132955983281136 m18.21276068687439,1.632101982831955 l-1.4719097316265106,-0.5007971450686455 -2.2444693744182587,0.11364240199327469 l-1.7338444292545319,0.8141877502202988 -1.4932991564273834,1.3300476968288422 l-1.377505362033844,1.9729840755462646 -0.7554586231708527,2.282339334487915 l-0.02618396421894431,4.048614501953125 0.8418509364128113,2.090480774641037 l1.4201812446117401,1.679789274930954 1.6128984093666077,1.1080079525709152 l1.7292089760303497,0.5514757335186005 3.0097103118896484,0.04438045900315046 l1.9278503954410553,-0.997573733329773 1.8284635245800018,-2.0460908114910126 l1.1730442196130753,-3.9573585987091064 0.0011945439473493025,-3.3366188406944275 l-0.7145931571722031,-1.8444930016994476 -1.2287242710590363,-1.44789919257164 l-2.4177049100399017,-1.5097051858901978 -2.0905396342277527,-0.6280811876058578 m-19.2842960357666,1.8129786849021912 l-0.319586880505085,-0.43795816600322723 0.22552117705345154,-1.9671490788459778 l0.8680222928524017,-1.9269959628582 1.2930311262607574,-1.577456295490265 l2.0287366211414337,-1.0502558201551437 3.7302419543266296,-0.8154685795307159 l5.595831871032715,-0.019928435795009136 1.8983155488967896,0.6234650313854218 l2.4257251620292664,1.7579632997512817 2.0331884920597076,2.6157835125923157 l1.3189704716205597,3.2398393750190735 0.32340656965970993,4.006142318248749 l-0.4716162383556366,2.0761221647262573 -1.6411341726779938,3.027954399585724 l-2.6729869842529297,2.5030145049095154 -1.7147676646709442,0.7222915440797806 l-2.023782730102539,0.2188728004693985 -2.9281073808670044,-0.4562162607908249 l-3.1573694944381714,-1.669599860906601 -2.6165729761123657,-2.630731165409088 l-1.485648900270462,-2.443366050720215 -1.0860629379749298,-3.27932208776474 l-0.31515493988990784,-3.565860688686371 0.43039217591285706,-2.996380925178528 l0.7186020910739899,-1.504078358411789 1.0603062063455582,-1.2101875245571136 l2.3150232434272766,-1.0170330852270126 m0.7956927269697189,18.226375579833984 l-0.26086749508976936,1.981310397386551 -2.208949625492096,5.787754058837891 l-0.5117632076144218,2.6537346839904785 -0.00167301986948587,4.837653338909149 l1.3911336660385132,4.634749889373779 1.6841603815555573,2.684949040412903 l2.3395825922489166,2.2278280556201935 2.7836787700653076,1.5859730541706085 l3.046981990337372,0.8015026897192001 3.709620237350464,-0.22460438311100006 l2.2120629251003265,-1.2418879568576813 2.710483968257904,-3.1084010004997253 l1.5247118473052979,-3.21567565202713 0.8932902663946152,-3.79665344953537 l0.11074010282754898,-5.903809070587158 -1.1304272711277008,-4.865719377994537 l-1.8727679550647736,-4.009622931480408 -1.3732939958572388,-1.6261149942874908 l-2.2756870090961456,-1.538429707288742 m-13.919198513031006,2.4731655418872833 l-1.563510149717331,1.4873458445072174 -1.1929596960544586,2.5122010707855225 l-1.4355768263339996,5.277528166770935 -0.14504400081932545,6.2498825788497925 l0.5761034414172173,1.8347397446632385 1.1038240790367126,1.593058556318283 l1.7558486759662628,1.0436919331550598 2.2516390681266785,0.3395478054881096 l1.655329167842865,-0.39987485855817795 1.106140837073326,-1.0090101510286331 l1.3502094149589539,-2.786315381526947 0.8193065226078033,-5.923870801925659 l-0.036112742964178324,-5.535906553268433 -1.0977498441934586,-3.8018712401390076 l-1.9054542481899261,-2.6454973220825195 -1.5026693046092987,-0.8730242401361465 m12.645071744918823,1.3100238144397736 l-0.3691224381327629,4.310283064842224 0.620662085711956,5.89106559753418 l1.2015146762132645,3.3286017179489136 1.4100320637226105,2.219696491956711 l2.053135931491852,1.788662075996399 1.813347041606903,0.3937103599309921 l1.4486880600452423,-0.3434636816382408 1.2075436860322952,-1.8968373537063599 l0.29615137726068497,-2.886401414871216 -0.7616353034973145,-3.812035024166107 l-2.9777199029922485,-5.881894826889038 -3.6199572682380676,-4.229449033737183 l-2.4012260138988495,-1.6545648872852325 m-9.830756187438965,25.621590614318848 l-0.30879899859428406,2.803654670715332 m8.593161702156067,-2.8658783435821533 l0.24039141833782196,2.0798668265342712 m-7.990790009498596,-11.052460670471191 l-1.6856063902378082,3.1879225373268127 m2.9646259546279907,-2.1985654532909393 l-0.1990681327879429,3.479677140712738 0.4628058522939682,1.319030076265335 m1.3452671468257904,-3.389018177986145 l1.1376022547483444,4.267410635948181 m5.53815484046936,-4.207245707511902 l-0.22841768339276314,4.348101615905762 m1.6486448049545288,-4.9564677476882935 l1.4035938680171967,3.91154021024704 m0.2723066136240959,-4.0873983502388 l1.6857129335403442,4.109078347682953 m-13.409485816955566,-30.430803298950195 l-0.745827928185463,0.4556531086564064 -0.5354681238532066,1.4723831415176392 l0.004874741134699434,2.0779721438884735 0.6681329756975174,1.1824963986873627 l1.2578436732292175,0.1604914478957653 1.2542444467544556,-1.0475420206785202 l0.5341971293091774,-1.178448423743248 0.002699000178836286,-1.4368942379951477 l-0.7262565940618515,-1.0539672523736954 m80.33701585784002,-4.416751067619771 l-1.6154247522354126,-0.7414821535348892 -2.8868043422698975,-0.2132006362080574 l-2.2935354709625244,0.5224708840250969 -2.2279950976371765,1.3097874820232391 l-2.4637383222579956,2.8377723693847656 -1.295822411775589,3.561544716358185 l-0.0797936599701643,4.25704300403595 1.0038843750953674,2.2754549980163574 l1.7491433024406433,1.850016713142395 4.53835517168045,2.1845078468322754 l2.296893447637558,0.5069330334663391 4.71588522195816,0.11312073096632957 l2.698391079902649,-0.8640347421169281 2.38478422164917,-1.5517427027225494 l1.277550607919693,-1.591946929693222 0.8917891979217529,-2.5228869915008545 l-0.07777809631079435,-3.8314852118492126 -0.8980966359376907,-2.2482460737228394 l-1.5518583357334137,-2.1528062224388123 -1.6441258788108826,-1.3092859089374542 l-3.3799737691879272,-1.508186161518097 -2.6737242937088013,-0.5134765431284904 m-4.565609395503998,5.782932639122009 l-1.1469700187444687,0.04413266200572252 -0.49736499786376953,0.6327811628580093 l-0.3267884626984596,1.1987632513046265 0.0005367453195503913,1.8174897134304047 l0.8352633565664291,0.8881617337465286 1.8634355068206787,0.1436000969260931 l0.7313291728496552,-0.6166357547044754 0.49766529351472855,-1.7291748523712158 l-0.3145231679081917,-1.1492906510829926 -1.2786541879177094,-1.069634035229683 m7.789632678031921,0.20110249519348145 l-1.3169482350349426,0.20246194675564766 -0.919027104973793,1.1281270533800125 l-0.3093017265200615,1.3801270723342896 0.4991256445646286,1.0464553534984589 l1.307697743177414,0.6158140301704407 1.3062180578708649,0.021304241381585598 l0.6038752198219299,-0.3524613380432129 0.4102989286184311,-1.244787946343422 l-0.001927806733874604,-1.677752286195755 -0.7774950563907623,-0.905078798532486 l-1.1213688552379608,-0.37382300943136215 m-5.064553618431091,6.348727345466614 l0.5070029571652412,2.3960745334625244 1.62039116024971,-2.2533465921878815 l-0.842832401394844,0.1559034176170826 m-5.653099417686462,4.395425021648407 l-2.1149569749832153,3.429056406021118 -1.0153990238904953,3.1031060218811035 l-0.4910382628440857,4.041854739189148 0.2494867518544197,3.8025283813476562 l0.9124492853879929,2.488332986831665 1.449960172176361,1.8448956310749054 l2.07187756896019,1.282583326101303 1.7879138886928558,0.5303455516695976 l3.7952113151550293,0.09483648464083672 2.4486760795116425,-1.0118144750595093 l2.4969571828842163,-2.030700445175171 1.287841945886612,-1.7132657766342163 l1.1063818633556366,-2.811167538166046 0.27926383540034294,-3.6145442724227905 l-1.0275054723024368,-6.1717259883880615 -1.048373430967331,-2.367292195558548 l-1.1763928830623627,-1.196001023054123 m-12.39661693572998,2.891431450843811 l-2.507946491241455,3.767165243625641 -1.04497991502285,2.9659217596054077 l-0.6161142885684967,3.7573376297950745 0.0009304022387368605,2.629392147064209 l0.7653525471687317,1.5035849809646606 1.1095952987670898,0.4487766698002815 l1.2921100854873657,-0.25453973561525345 1.3590770959854126,-1.4624039828777313 l1.6051295399665833,-3.142305016517639 0.8100918680429459,-3.441030979156494 l0.05258653312921524,-4.399889707565308 -0.7119236141443253,-2.0287325978279114 m11.131353378295898,-0.5273639038205147 l0.15744805335998535,4.5455533266067505 0.8468003571033478,2.408905178308487 l1.3150697946548462,1.7912738025188446 1.8538998067378998,0.8702485263347626 l1.7532992362976074,-0.21682098507881165 0.9254462271928787,-1.4331571757793427 l0.17560135573148727,-2.529359459877014 -1.2612967193126678,-3.1901422142982483 l-2.4055686593055725,-2.9637959599494934 -2.4296310544013977,-1.650339812040329 m-10.343127250671387,18.518818616867065 l-0.7904542982578278,3.2704800367355347 -0.6693653762340546,0.06630314979702234 l-0.6595683842897415,0.7368633896112442 0.6276309490203857,0.30378367751836777 l1.708032637834549,-0.7710334658622742 0.5015067011117935,1.7908716201782227 l0.4929067939519882,0.1349967159330845 1.192856952548027,-2.1750378608703613 l1.2697279453277588,1.2084361165761948 0.8457494527101517,-1.3983498513698578 l0.30082423239946365,-1.9368746876716614 m2.8129208087921143,0.34853238612413406 l1.0318932682275772,2.234119027853012 0.5142618715763092,-1.0699359327554703 l1.2450330704450607,0.8747490495443344 0.5544194206595421,-1.5137360990047455 l1.5230411291122437,0.823654904961586 0.4136817157268524,-1.7207339406013489 l1.3290517032146454,0.23119287565350533 m-16.54434561729431,-21.222190856933594 l-1.3255664706230164,3.277757167816162 -0.4543372243642807,2.931702733039856 l0.0011429555888753384,3.652607500553131 0.6640409678220749,3.100574314594269 l0.9769546985626221,1.7256157100200653 1.7097845673561096,1.4463992416858673 m13.38308572769165,-16.86770796775818 l1.4698681235313416,2.1134863793849945 1.157483458518982,3.6138468980789185 l0.18682995811104774,4.512782096862793 -0.9503239393234253,3.2875996828079224 l-1.9738757610321045,2.9961511492729187 m-9.957791566848755,-18.8155460357666 l0.22490637376904488,2.8299644589424133 0.5946096032857895,1.4712387323379517 l0.6176691502332687,0.2616310864686966 0.6719084829092026,-0.5634138360619545 l0.9481699764728546,-2.1074938774108887 0.3860306367278099,-1.3127140700817108 l-0.1686146855354309,-0.3761178255081177 -0.8865456283092499,0.04824801813811064 l-0.9838929772377014,0.7314839214086533 -0.690087080001831,1.1905160546302795 l-0.06983954925090075,1.2152158468961716 0.733085572719574,0.6193870306015015 l1.1758729815483093,-0.2756090834736824 1.0266832262277603,-1.5534210205078125 l0.14384882524609566,-1.6391633450984955 -0.6284576654434204,-0.5453987792134285 l-1.0593225806951523,0.10379890911281109 -0.6880993396043777,0.8280128985643387 l-0.3886820003390312,1.3384239375591278 0.5468491837382317,0.8131092041730881 l1.0560782998800278,0.019022520864382386 0.7050913572311401,-0.5632388219237328 l0.480908527970314,-1.489984542131424 m84.07004990487621,-23.39405051083304 l-1.636846661567688,-1.9397208094596863 -2.4395014345645905,-1.3374169170856476 l-3.3746150135993958,-0.7637152075767517 -4.778084456920624,0.06218753755092621 l-2.748996317386627,0.858086496591568 -2.641662061214447,1.6177020967006683 l-2.372284233570099,2.5909847021102905 -1.281890720129013,2.4472880363464355 l-0.8310627937316895,4.3153315782547 0.2796660177409649,5.08436381816864 l1.3154813647270203,5.685880780220032 1.8530911207199097,4.6151721477508545 l1.4610299468040466,2.241741418838501 2.3577968776226044,2.5901401042938232 l2.782524824142456,1.7335431277751923 2.9586100578308105,0.828012153506279 l3.338910937309265,0.034187978599220514 2.9188162088394165,-0.9052509814500809 l2.9443171620368958,-1.7298918962478638 3.686634600162506,-3.370804190635681 l2.238793522119522,-3.0757930874824524 1.4401325583457947,-3.461192548274994 l0.3002775087952614,-4.342243671417236 -0.9114302694797516,-4.6349456906318665 l-2.2102773189544678,-4.692974388599396 -2.5831609964370728,-3.26950341463089 l-2.817399501800537,-2.2639885544776917 -2.21275195479393,-1.0503790527582169 m-11.947295665740967,4.544307887554169 l-0.7773412019014359,-0.12861189432442188 -1.449459195137024,1.031431183218956 l-1.234353557229042,1.8850110471248627 -0.391061007976532,1.9124211370944977 l-0.0028698693495243788,2.2998376190662384 0.7194635272026062,1.8529823422431946 l1.3527743518352509,1.3130377233028412 1.6655392944812775,0.5699313059449196 l2.2042977809906006,-0.14157753437757492 1.7554663121700287,-1.057041883468628 l1.085927039384842,-1.3154029846191406 0.5899513140320778,-2.3052561283111572 l-0.4848688840866089,-2.4117599427700043 -1.69708713889122,-2.3014935851097107 l-1.5584798157215118,-1.0567621141672134 -1.2878826260566711,-0.1924067921936512 l-1.3361738622188568,0.3546258807182312 m12.937417030334473,-0.2725297026336193 l-1.2680068612098694,-0.10350127704441547 -1.3803158700466156,0.741955116391182 l-1.1892838031053543,1.5141275525093079 -0.5520142242312431,1.7989975214004517 l0.10831995867192745,2.094559967517853 0.8529584109783173,1.5770797431468964 l1.4113456010818481,1.1502155661582947 1.8853579461574554,0.43097198009490967 l1.468265950679779,-0.2017364650964737 1.4296838641166687,-1.0347748547792435 l0.8141867071390152,-1.7979562282562256 -0.05369284190237522,-1.704944521188736 l-0.6649846583604813,-1.5885108709335327 -1.7817366123199463,-1.6390080749988556 l-2.406485378742218,-0.7513093948364258 -1.6938148438930511,0.07201479282230139 m-4.005322754383087,11.253374814987183 l1.4101386070251465,2.715195119380951 1.2113599479198456,1.2420546263456345 l0.7858489453792572,-2.235206812620163 1.276598870754242,-2.395097315311432 l-2.474007159471512,0.03592019435018301 -1.8002060055732727,0.23921603336930275 m-5.739627480506897,-5.339120030403137 l0.449272021651268,0.2571985125541687 m12.426166534423828,-0.24224085733294487 l0.017836270853877068,-0.007130724843591452 m-15.431932210922241,18.508142232894897 l-1.340823769569397,1.6149137914180756 -1.4861483871936798,3.144824504852295 l-0.928829163312912,3.4679093956947327 -0.3550335764884949,4.825766980648041 l0.7502248883247375,4.9698615074157715 1.6855712234973907,4.82595831155777 l2.711377739906311,3.9287441968917847 3.77140611410141,3.1455183029174805 l3.1779947876930237,1.3139905035495758 3.430699110031128,0.3639545664191246 l5.070049166679382,-0.7942331582307816 3.1434303522109985,-1.2257765233516693 l2.780783474445343,-1.804186850786209 1.7084527015686035,-1.7597822844982147 l2.4364374577999115,-3.922860622406006 1.067286804318428,-2.967453896999359 l0.4468681663274765,-4.426090121269226 -1.0875798761844635,-6.919804215431213 l-2.8301945328712463,-7.014468312263489 -2.6570606231689453,-3.7812715768814087 m-21.86563491821289,7.717427611351013 l0.0668976828455925,4.611871540546417 -1.1318852007389069,4.396783411502838 l-0.9198338538408279,1.8227051198482513 -1.3157932460308075,1.2925124168395996 l-1.0803503543138504,0.4009069502353668 -1.0962457209825516,-0.12133290991187096 l-1.2410814315080643,-1.4068244397640228 -0.5508261546492577,-1.6765312850475311 l-0.15795674175024033,-3.4516388177871704 0.5475679412484169,-2.58198618888855 l1.687033325433731,-3.709222376346588 2.301376760005951,-3.1801146268844604 l1.4260673522949219,-1.3273239135742188 m22.63601303100586,3.042808175086975 l0.5835425853729248,3.247414231300354 2.472601979970932,5.298393964767456 l1.5820489823818207,2.140004485845566 1.5868967771530151,0.9671597927808762 l1.8224942684173584,0.1607130840420723 1.023973599076271,-0.46560343354940414 l0.9378891438245773,-2.0275983214378357 -0.005083076539449394,-3.302065134048462 l-0.7960080355405807,-2.269257754087448 -2.1728311479091644,-2.925795316696167 l-3.1359657645225525,-2.383595257997513 -3.6853718757629395,-1.421072632074356 l-1.7404966056346893,-0.026002656668424606 m-14.971860647201538,26.379871368408203 l-0.6289913505315781,3.7221938371658325 -0.0011616547999437898,2.710076868534088 m12.472493648529053,-6.859821677207947 l0.9063266962766647,4.52248215675354 m-13.59281301498413,0.910196378827095 l-1.6382494568824768,0.6624012440443039 m1.997341811656952,-0.7414882630109787 l1.5092651546001434,2.4313266575336456 m-1.1067868769168854,-2.2245319187641144 l1.49981290102005,0.35424336791038513 m12.43914008140564,-2.146073281764984 l-0.9939982742071152,2.4134671688079834 m1.2359123677015305,-2.2561216354370117 l1.946243792772293,1.854839026927948 m-0.8693953603506088,-1.7731636762619019 l3.2047805190086365,0.6964483112096786 m-20.310287475585938,-35.182106494903564 l1.0977926850318909,2.268328368663788 0.7426145672798157,3.150428831577301 l-0.06529135163873434,4.290013611316681 -0.5703279376029968,2.123918831348419 l-2.4885953962802887,3.6069142818450928 -1.8486382067203522,1.7047405242919922 l-1.7556114494800568,1.0647419840097427 m88.75572371602175,-18.432242253329605 l-0.9652259200811386,-0.15486184507608414 -1.9301868975162506,0.810607448220253 l-1.6460859775543213,1.4267319440841675 -1.8417195975780487,3.0274146795272827 l-0.6440379470586777,3.4705528616905212 -0.0025682197883725166,2.5626900792121887 l0.676845982670784,1.8339486420154572 2.188730090856552,2.082584947347641 l1.6123613715171814,0.7087283581495285 1.821664273738861,0.25366105139255524 l3.324761986732483,-0.5532083660364151 2.209155261516571,-1.3580617308616638 l1.3659727573394775,-1.4955267310142517 0.8943343162536621,-1.9483678042888641 l0.369160957634449,-3.0224618315696716 -0.6886995583772659,-2.7848809957504272 l-1.1852924525737762,-1.784384697675705 -1.5858934819698334,-1.3692434132099152 l-2.9010558128356934,-1.1397899687290192 -3.0581846833229065,-0.019810397643595934 m18.70579242706299,-0.44356323778629303 l-1.5038250386714935,0.050957915373146534 -1.7627599835395813,0.9686165302991867 l-1.8198375403881073,1.779872179031372 -1.1506349593400955,1.8737615644931793 l-0.7879522442817688,2.5041642785072327 -0.08571146987378597,2.473996877670288 l1.052035242319107,2.7609774470329285 2.1974948048591614,2.14526429772377 l2.7655377984046936,1.0011782497167587 2.8191912174224854,0.016142548993229866 l2.2722119092941284,-0.8864834904670715 1.9768059253692627,-1.7052479088306427 l1.776285171508789,-2.936044931411743 0.3669489920139313,-2.7313587069511414 l-0.5947016179561615,-2.000030428171158 -1.181933507323265,-1.555396318435669 l-1.9987280666828156,-1.34530708193779 -2.2970260679721832,-0.7696564495563507 l-2.341824173927307,-0.2632332779467106 m-11.328908205032349,17.854121923446655 l4.252021014690399,0.099367406219244 -0.08162463083863258,0.5609749630093575 l-2.060723751783371,3.059294819831848 -0.773775726556778,1.5297611057758331 l-1.348930299282074,-4.14030909538269 -0.40481049567461014,-2.058677077293396 m-5.891095995903015,-13.974461555480957 l-1.574641466140747,0.14514349400997162 -1.7693817615509033,1.1667799949645996 l-1.5438821911811829,1.729835420846939 -0.7174726575613022,1.3726967573165894 l-0.3027799725532532,2.025955766439438 0.6273096799850464,2.5192660093307495 l1.4463874697685242,1.6146880388259888 1.7429392039775848,0.8236300945281982 l2.0929034054279327,0.1715618558228016 2.152485102415085,-0.5569833517074585 l1.7427843809127808,-1.3444605469703674 1.1732227355241776,-1.8815666437149048 l0.40880974382162094,-1.8529653549194336 -0.197951290756464,-1.895473301410675 l-0.8544324338436127,-1.6194646060466766 -1.3173271715641022,-1.262999176979065 l-1.6573244333267212,-0.6544166803359985 -2.1646927297115326,-0.09747156873345375 l-1.7737147212028503,0.4885188117623329 -1.2825396656990051,1.009555384516716 m20.68394660949707,-2.3446549475193024 l-2.186952084302902,-0.2707616426050663 -1.9808268547058105,0.6109856069087982 l-2.433103919029236,2.0424942672252655 -0.9014221280813217,1.777755618095398 l-0.10927665047347546,2.650285065174103 0.8684396743774414,1.6432780027389526 l2.226191610097885,1.3621382415294647 3.3278945088386536,0.28976257890462875 l2.1614597737789154,-0.7014724612236023 1.7941626906394958,-1.3614141941070557 l1.4185693860054016,-2.4729856848716736 0.11812391690909863,-2.245105355978012 l-0.738399550318718,-1.5906397998332977 -1.3161569833755493,-1.2148649245500565 l-1.762389987707138,-0.6959712505340576 -1.9391939043998718,-0.2194974198937416 l-3.097393214702606,0.5203398689627647 m-19.625781774520874,-1.8584850430488586 l-1.162269189953804,-0.6361936777830124 -1.510220617055893,-1.4702445268630981 l-1.166113242506981,-2.277044951915741 -0.6354121118783951,-3.6327949166297913 l-0.007383290794678032,-3.067169487476349 0.5843381211161613,-2.052551954984665 l1.6359937191009521,-2.172887623310089 1.6859808564186096,-1.3534347712993622 l3.989584743976593,-1.6218285262584686 5.285688638687134,-0.8708282560110092 l6.776151061058044,0.08160128258168697 4.0807390213012695,0.9235390275716782 l4.135569334030151,1.891568899154663 3.7623748183250427,2.946491837501526 l1.319362074136734,1.839839369058609 0.5759495869278908,2.9244521260261536 l-0.41903961449861526,3.805544376373291 -0.859983041882515,2.03860804438591 l-1.9760896265506744,2.498796582221985 -1.5474049746990204,1.1023913323879242 l-3.6404338479042053,1.442791372537613 m-16.93214774131775,5.479883551597595 l-1.9908608496189117,3.512367010116577 -1.068587303161621,2.8707247972488403 l-0.5745911225676537,2.7354949712753296 5.492989316735475e-06,4.0104177594184875 l1.3794715702533722,4.640742540359497 1.6996277868747711,2.2191284596920013 l2.474214881658554,1.8122130632400513 2.964799404144287,0.9223271906375885 l4.704958200454712,0.052645024843513966 2.17313215136528,-0.5583496019244194 l3.7346595525741577,-1.9929717481136322 1.5602697432041168,-1.3611657917499542 l2.6259496808052063,-3.4886106848716736 1.8958128988742828,-4.436464011669159 l0.5028893053531647,-3.9116716384887695 0.0048209866508841515,-3.6148831248283386 l-1.2113197147846222,-2.725529968738556 -1.5921501815319061,-1.5599195659160614 l-2.1203605830669403,-0.9855558723211288 m-18.510048389434814,2.2529953718185425 l-1.029655709862709,1.3333041965961456 -1.0825679451227188,2.887318432331085 l-0.7840088754892349,3.83393794298172 -0.04169560968875885,4.985113441944122 l0.6273677200078964,1.8367382884025574 1.106024757027626,1.088329702615738 l1.2272579222917557,0.3415463864803314 2.256178557872772,-0.08598155342042446 l1.891205906867981,-1.4564689993858337 1.1156830936670303,-1.726481169462204 l0.9438261389732361,-3.0909955501556396 0.1247826125472784,-4.266603887081146 l-0.7485472410917282,-2.03745037317276 -1.3909415900707245,-1.5872284770011902 m12.800594568252563,0.6585694849491119 l0.05640478804707527,2.971413731575012 0.7866398245096207,2.677440345287323 l1.122717708349228,2.0131754875183105 1.4721660315990448,1.128089725971222 m71.37404493150314,-38.9844490471296 l-1.322558969259262,-0.8419248461723328 -2.6417168974876404,-0.7230814546346664 l-3.5591304302215576,-0.12183701619505882 -2.1255503594875336,0.6260950118303299 l-2.193707972764969,1.5262086689472198 -1.227150484919548,1.457168310880661 l-1.1079365015029907,2.456640303134918 -0.41225820779800415,2.8052419424057007 l-0.0038693228270858526,3.3867207169532776 1.2259182333946228,3.1535834074020386 l2.7744752168655396,2.5263771414756775 4.372418522834778,1.549021452665329 l3.689185082912445,0.19151592627167702 4.409985542297363,-0.8132616430521011 l2.4123428761959076,-1.3196085393428802 2.592669725418091,-2.677990198135376 l0.8926848322153091,-1.8205854296684265 0.2449318766593933,-3.1789055466651917 l-0.5931270867586136,-2.2765646874904633 -1.6630999743938446,-2.8456974029541016 l-1.701190173625946,-1.7131920158863068 -1.7433951795101166,-0.9836713969707489 l-2.0630665123462677,-0.5000650137662888 m-11.402198076248169,15.542441606521606 l-0.987909659743309,0.21692903712391853 -0.7819664478302002,0.828506276011467 l-1.3875576853752136,2.7934429049491882 -1.1792128533124924,3.9283451437950134 l-0.654727891087532,5.8187150955200195 0.3873307630419731,6.51900589466095 l1.5527249872684479,5.260517597198486 2.5136294960975647,4.055619537830353 l3.7466707825660706,3.2556676864624023 3.017253875732422,1.4650695025920868 l3.4192970395088196,0.740317776799202 3.3340367674827576,-0.057649314403533936 l2.851509153842926,-0.9449952095746994 3.1237435340881348,-1.9524577260017395 l2.431909888982773,-2.24224254488945 2.9778531193733215,-4.162917733192444 l1.7448239028453827,-4.41006600856781 0.6313513219356537,-3.3567506074905396 l-0.029879114590585232,-5.614375472068787 -1.2953217327594757,-5.0092679262161255 l-2.1855974197387695,-4.16422039270401 -2.6311516761779785,-2.958202064037323 l-3.0472776293754578,-2.051987648010254 -2.416051924228668,-0.8917715400457382 m-14.269425868988037,-2.962349057197571 l-0.4810492694377899,1.363576054573059 0.0006238848436623812,6.511702537536621 l1.5003545582294464,9.625346660614014 1.3075964152812958,5.705082416534424 l1.9911737740039825,5.794418454170227 1.617351472377777,2.1312110126018524 l2.069512754678726,1.4659689366817474 2.106435000896454,0.5524341017007828 l1.6719163954257965,-0.21471960470080376 1.888808012008667,-1.4428123831748962 l2.094626873731613,-3.57975035905838 0.9652284532785416,-2.8561627864837646 l1.0551174730062485,-7.006019949913025 -0.013378550065681338,-6.4565229415893555 l-1.0414860397577286,-4.982032477855682 -1.900029182434082,-4.421667754650116 l-2.093167304992676,-2.3915231227874756 -1.5565387904644012,-0.9874454140663147 l-1.8735125660896301,-0.5770279839634895 -2.1936261653900146,-0.15075539238750935 l-1.8232841789722443,0.425560399889946 -1.6442665457725525,1.1301814764738083 l-1.4641845226287842,1.862434595823288 -1.0092401504516602,2.4609550833702087 l-0.38275346159935,2.95078307390213 0.08987612091004848,2.452646791934967 l1.1622536182403564,3.449552059173584 1.2425573915243149,2.0901842415332794 l2.5793293118476868,2.44801864027977 1.6459140181541443,0.8527214080095291 l2.837962508201599,0.5994121730327606 1.427539587020874,-0.23096570745110512 l1.1985468119382858,-0.9235583245754242 0.8453702926635742,-2.000758647918701 l0.17488816753029823,-2.4202969670295715 -0.8545034378767014,-3.8019591569900513 l-1.9930656254291534,-3.5639595985412598 -2.661808431148529,-2.7968162298202515 l-2.9878947138786316,-1.869104653596878 -2.2460685670375824,-0.7748203724622726 l-1.9927480816841125,-0.21882377564907074 -1.262321025133133,0.35217590630054474 l-1.0822786390781403,0.9594791382551193 -0.8437572419643402,1.7359526455402374 l-0.24207334965467453,2.4407891929149628 0.7283847033977509,2.0630118250846863 l1.612655371427536,1.8609412014484406 2.338556945323944,1.4881101250648499 l3.470834493637085,1.0948384553194046 3.5075941681861877,0.16320493072271347 l1.992613822221756,-0.9032237529754639 0.9473639726638794,-1.196044385433197 l0.4164770245552063,-2.3009975254535675 -0.38159821182489395,-1.4985914528369904 l-1.017914041876793,-1.2687446177005768 -1.6594773530960083,-1.1435188353061676 l-2.182050198316574,-0.8396352082490921 -3.5323747992515564,-0.313209593296051 l-1.8264219164848328,0.21043213084340096 -1.82429701089859,0.7472239434719086 l-1.736128181219101,1.672854870557785 -0.9128425270318985,1.8984773755073547 l-0.13237242586910725,2.274622321128845 0.7900547981262207,2.0340918004512787 l1.7655986547470093,1.8474505841732025 3.673589527606964,1.8140581250190735 l3.288654088973999,0.4857078939676285 2.906324565410614,-0.13215895742177963 l1.6943871974945068,-0.9044289588928223 1.0718369483947754,-1.2186820805072784 l0.4628445953130722,-2.1038539707660675 -0.454300232231617,-1.8285143375396729 l-1.8196237087249756,-2.048358917236328 -3.0979230999946594,-1.6760583221912384 l-3.3712106943130493,-0.46187039464712143 -2.415926903486252,0.21976882591843605 l-1.9747471809387207,0.7273264229297638 -2.010626345872879,1.2271542847156525 l-1.2923218309879303,1.3061079382896423 -0.8466745167970657,1.7077398300170898 l-0.0938569474965334,2.039838880300522 0.9523122012615204,1.974281221628189 l2.9726043343544006,2.223479449748993 3.21775883436203,1.1050090938806534 l2.510432004928589,0.005754221347160637 1.904720515012741,-0.863567441701889 l1.182781606912613,-1.1743085831403732 0.7314847409725189,-1.9493421912193298 l-0.13150022365152836,-1.654621660709381 -1.71061173081398,-2.481500804424286 l-2.8323358297348022,-1.5485700964927673 -2.3382778465747833,-0.5933741852641106 l-2.297215461730957,-0.039508165791630745 -2.000768482685089,0.3926490992307663 l-1.6266243159770966,0.6949633359909058 -1.2256670743227005,0.9288470447063446 l-1.0405511409044266,2.2485995292663574 -0.29310520738363266,1.8160733580589294 l0.170451570302248,2.1903011202812195 m86.18911238943838,-16.49417311011348 l-1.0084880143404007,-3.671466112136841 -0.31424224376678467,-3.9291131496429443 l1.3899610936641693,0.24071192368865013 3.1497785449028015,2.311740666627884 l2.285041958093643,0.49549050629138947 5.308466553688049,0.08441640064120293 l3.9658012986183167,-2.264919728040695 1.2440938502550125,0.4159926623106003 l1.5755124390125275,2.1516692638397217 0.5936196073889732,1.7325380444526672 l-0.0022914640430826694,2.943790853023529 -0.4717022180557251,1.3795512914657593 l-1.4298607409000397,1.8467113375663757 -2.522285282611847,1.6512706875801086 l-3.0150744318962097,0.7478532195091248 -3.7693890929222107,-0.13428371399641037 l-3.5167551040649414,-1.2550203502178192 -2.6290270686149597,-2.140605002641678 l-1.1313918232917786,-1.6355861723423004 -0.15317008830606937,-1.9306980073451996 m5.315170884132385,-0.9408079087734222 l-1.004636064171791,0.07240559905767441 -0.6025714799761772,0.5447613820433617 l-0.5931251496076584,1.8695813417434692 0.0033197322045452893,1.6527780890464783 l0.818081796169281,1.1997147649526596 2.1251672506332397,0.7589828222990036 l1.3951504230499268,-0.010866951197385788 0.6348881125450134,-0.3917688876390457 l0.5620980635285378,-1.680905669927597 -0.09242727421224117,-1.628309190273285 l-1.1311734467744827,-1.6484501957893372 -1.9818250834941864,-1.0309882462024689 m8.92227590084076,0.447273887693882 l-0.6034126132726669,-0.11727670207619667 -0.8882363885641098,0.6998509913682938 l-0.5936074256896973,1.4400793612003326 0.14328598976135254,2.214341312646866 l0.9161184728145599,0.9626680612564087 1.2909013032913208,0.227873083204031 l1.3075201213359833,-0.41172556579113007 0.9212319552898407,-1.2215932458639145 l0.28853897005319595,-1.4347240328788757 -0.7700127363204956,-1.388823240995407 l-1.3335530459880829,-0.8589235693216324 -1.3045233488082886,-0.05418009590357542 m-4.369107484817505,6.720572113990784 l0.5022430792450905,2.248474657535553 1.0379550606012344,-1.1292021721601486 l0.24991445243358612,-0.5820645019412041 m-7.45013952255249,0.6802710145711899 l-1.8021656572818756,2.3192913830280304 -1.0961216688156128,2.8350257873535156 l-0.670689269900322,5.711833238601685 -0.00034835284168366343,4.176784455776215 l0.6652992963790894,2.507862150669098 1.3692733645439148,2.066684514284134 l1.862054169178009,1.310112178325653 2.7289989590644836,0.8907241374254227 l2.9609161615371704,0.14687566086649895 1.7696528136730194,-0.3110410273075104 l2.649087607860565,-1.3349026441574097 2.013823986053467,-1.8196295201778412 l1.7612676322460175,-2.658158838748932 1.0074550658464432,-3.2968690991401672 l0.11543053202331066,-4.599736034870148 -1.0515184700489044,-4.165070950984955 l-1.2574581801891327,-2.2591277956962585 m-14.041937589645386,2.538185715675354 l-1.7212015390396118,1.9717873632907867 -1.0183927416801453,2.387675791978836 l-0.6726609170436859,3.2978910207748413 -0.0012236116162966937,3.9134082198143005 l0.7084737718105316,1.7418736219406128 1.3188901543617249,0.9377019107341766 l1.129593774676323,0.05807030480355024 0.8388198912143707,-0.5873039364814758 l1.1583958566188812,-2.342468351125717 0.7320551574230194,-3.421766757965088 l-0.2458507940173149,-5.64005434513092 -0.9029167890548706,-1.734306663274765 m11.292977333068848,-0.9527608752250671 l0.6969521194696426,3.9102208614349365 1.298578679561615,2.440142333507538 l1.8147028982639313,1.7145854234695435 1.3825929164886475,0.12139277532696724 l0.8375195413827896,-1.1298981308937073 0.3215485066175461,-1.442146748304367 l-0.0024069267965387553,-2.6586228609085083 -0.7580043375492096,-1.8532346189022064 l-1.2407122552394867,-1.4807842671871185 -1.7523978650569916,-0.9271150827407837 m-11.79630994796753,16.92772626876831 l-0.14134813100099564,3.943835496902466 -0.9153733402490616,0.9883317351341248 l-1.1823675781488419,0.19888702780008316 -1.0062146186828613,1.0008109360933304 l0.22310839965939522,0.7310380786657333 1.0599346458911896,0.053696599788963795 l0.9095919132232666,-0.6457255035638809 1.0083486884832382,-1.6130270063877106 l0.4794672876596451,1.8299397826194763 0.7769341021776199,0.44039733707904816 l0.5680955201387405,-0.18305854871869087 0.6701742112636566,-1.3113142549991608 l-0.11515110731124878,-3.4387817978858948 -0.7022853940725327,-2.2786204516887665 m7.362908124923706,-1.147104799747467 l0.0150370504707098,4.438882768154144 0.5665562301874161,1.8886080384254456 l0.6063156202435493,0.17987743020057678 0.6754598766565323,-1.083863452076912 l0.8666833490133286,0.823172852396965 1.1808613687753677,0.07671569008380175 l0.7629150152206421,-1.3528086245059967 -0.005312788998708129,-1.5136261284351349 l-0.8299557864665985,-1.5255029499530792 -1.0709885507822037,-0.7777545601129532 m-9.508361220359802,-19.422261714935303 l-0.8766165375709534,0.511290468275547 -0.5113344267010689,1.110628992319107 l0.0016238166426774114,1.5944933891296387 0.5680685862898827,0.4243367165327072 l1.0993070900440216,-0.10117445141077042 0.6566785275936127,-0.6289775669574738 l0.3097320720553398,-1.4471206068992615 -0.5620614439249039,-0.907234251499176 l-1.102512776851654,-0.39279185235500336 -0.9485205262899399,0.42279962450265884 l-0.4149007797241211,1.1826396733522415 0.4792419821023941,0.9059727191925049 l1.1130166798830032,0.1990395411849022 0.6305500119924545,-0.3852992132306099 l0.366617776453495,-1.1825655400753021 -0.4605291411280632,-0.6289374083280563 l-0.8484510332345963,0.06120976060628891 -0.5144812166690826,0.8123230934143066 l0.6068821623921394,0.6551899015903473 0.6450536102056503,0.021283209789544344 l0.4905051365494728,-0.948406308889389 -0.5163155123591423,-0.6067715585231781 l-0.6463396549224854,0.22750452160835266 -0.2939976193010807,0.6639327108860016 m9.34136688709259,-2.621276080608368 l-0.9762515127658844,0.7721647620201111 -0.39332177489995956,1.49751678109169 l0.00039604739868082106,0.7681622356176376 0.7000424712896347,0.3120981715619564 " fill="none" stroke="black" stroke-width="1" /></svg>